<svg t="1713988340963" class="icon" viewBox="0 0 1024 1024" version="1.1" xmlns="http://www.w3.org/2000/svg" p-id="1665" width="200" height="200"><path d="M320.785067 302.574933s20.48-11.844267 31.8464-16.964266l177.92 65.4336 287.761066 7.850666s21.6064 22.391467 28.0064 30.071467l52.241067 149.9136 42.154667 16.878933s9.6768 29.013333 12.407466 39.918934l-8.721066 69.12-417.1264 103.441066L192.3072 686.08l1.024-205.9264 102.4-133.358933z" fill="#2F2F2F" p-id="1666"></path><path d="M585.1136 476.5696c-0.802133 40.482133-3.037867 156.808533-2.235733 224.324267a348.654933 348.654933 0 0 0 44.168533-2.082134c21.6064-2.167467 44.168533-6.485333 65.911467-10.632533l13.841066-2.645333a495.069867 495.069867 0 0 0 63.146667-16.162134 456.2432 456.2432 0 0 0 96.5632-42.564266 520.721067 520.721067 0 0 0-76.8-156.8768 1025.979733 1025.979733 0 0 0-204.5952 6.638933z" fill="#757F3F" p-id="1667"></path><path d="M819.029333 452.164267a551.662933 551.662933 0 0 1 76.8 153.7536 187.630933 187.630933 0 0 0 43.997867-52.155734 567.5008 567.5008 0 0 0-39.253333-86.391466 508.023467 508.023467 0 0 0-54.3232-78.506667 360.106667 360.106667 0 0 1-27.221334 63.300267z" fill="#757F3F" p-id="1668"></path><path d="M361.506133 341.435733c34.133333 13.038933 150.801067 59.4432 211.114667 102.2464a1041.544533 1041.544533 0 0 1 216.32-8.157866 266.973867 266.973867 0 0 0 29.201067-76.8c-1.194667-1.194667-2.235733-2.474667-3.413334-3.601067a386.218667 386.218667 0 0 0-145.527466-77.5168 465.169067 465.169067 0 0 0-229.376-19.797333 350.8736 350.8736 0 0 0-87.1936 27.835733z" fill="#757F3F" p-id="1669"></path><path d="M952.8832 595.9168a246.340267 246.340267 0 0 1-55.808 51.438933c-0.392533 0.324267-0.887467 0.5632-1.194667 0.887467a464.861867 464.861867 0 0 1-115.2 53.521067 519.3728 519.3728 0 0 1-67.447466 17.271466l-13.841067 2.645334c-22.562133 4.317867-45.755733 8.8064-68.881067 11.195733-13.653333 1.365333-27.682133 2.474667-41.847466 2.474667-42.24 0-84.6336-9.915733-115.592534-52.241067a207.9232 207.9232 0 0 0-41.233066-42.973867l-6.161067-4.795733a98.1504 98.1504 0 0 0-35.84-21.6064l0.887467-34.133333a108.253867 108.253867 0 0 1 56.32 29.013333l5.597866 4.4032a241.2032 241.2032 0 0 1 48.0768 50.005333 85.725867 85.725867 0 0 0 48.0768 33.365334c-0.648533-72.157867 1.706667-192.1536 2.4064-225.911467-58.606933-41.1136-176.366933-87.517867-204.4928-98.286933a527.36 527.36 0 0 0-73.045333 64.648533 17.066667 17.066667 0 0 1-12.2368 5.12 16.759467 16.759467 0 0 1-11.946667-4.881067 17.066667 17.066667 0 0 1-0.238933-24.1664 535.552 535.552 0 0 1 78.318933-68.642133l-6.826666-41.762133a416 416 0 0 0-147.831467 149.111466c-34.133333 61.678933-45.602133 131.84-13.124267 199.68 10.632533 21.998933 32 58.965333 53.435734 71.68a452.573867 452.573867 0 0 0 59.511466 29.525334 511.709867 511.709867 0 0 0 52.155734 22.408533c16.64 4.9664 33.8432 10.24 50.722133 14.08s34.7136 5.12 51.831467 8.2432a279.057067 279.057067 0 0 0 45.9264 5.597867c78.7968 1.041067 158.481067 5.12 235.844266-13.5168a815.069867 815.069867 0 0 0 137.915734-45.038934 467.217067 467.217067 0 0 0 64.853333-34.133333c16.725333-10.564267 38.724267-20.957867 47.445333-39.8336 9.198933-19.9168 1.365333-43.997867-3.515733-64.1536-0.802133-3.1232-2.065067-6.724267-3.0208-10.24z" fill="#757F3F" p-id="1670"></path><path d="M239.633067 786.961067a98.423467 98.423467 0 0 0-34.235734-8.3968 201.659733 201.659733 0 0 0-61.764266-4.795734c-17.2032 3.1232-19.0464 7.5264-24.644267 23.432534-8.721067 25.0368-34.133333 100.078933-14.404267 123.767466a50.551467 50.551467 0 0 0 23.1936 10.001067 281.6 281.6 0 0 0 62.5664 8.874667 158.190933 158.190933 0 0 0 52.906667-6.826667c12.885333-3.601067 18.568533-6.638933 19.592533-20.872533a546.423467 546.423467 0 0 0-7.202133-90.555734c-1.8944-19.541333-6.690133-29.201067-16.008533-34.628266z" fill="#BDCF46" p-id="1671"></path><path d="M934.229333 696.7808c-7.441067 4.9664-15.36 9.352533-22.3232 13.755733a485.085867 485.085867 0 0 1-64.853333 34.133334 815.069867 815.069867 0 0 1-137.864533 44.987733c-77.3632 18.773333-157.013333 14.557867-235.844267 13.5168a276.992 276.992 0 0 1-45.9264-5.597867c-4.232533-0.802133-8.3968-1.4336-12.6464-2.082133l4.164267 44.373333a341.333333 341.333333 0 0 0 41.915733-0.5632c-5.12 51.438933-6.826667 106.9568 6.2464 117.521067a64.068267 64.068267 0 0 0 26.1632 6.9632 382.1568 382.1568 0 0 0 69.12 2.798933 205.841067 205.841067 0 0 0 57.0368-10.24c13.653333-4.164267 19.592533-7.202133 19.3536-19.7632-0.238933-16.0768-5.6832-67.754667-11.195733-111.991466a686.882133 686.882133 0 0 0 169.6768-42.666667c0.802133 17.7664 1.518933 32.955733 1.4336 36.078933a47.428267 47.428267 0 0 0 10.24 38.4c30.088533 26.487467 104.567467 11.042133 139.127466-0.477866 25.7536-8.533333 17.834667-38.485333 12.714667-55.995734-3.0208-10.427733-14.933333-64.989867-26.538667-103.150933z" fill="#BDCF46" p-id="1672"></path><path d="M1016.541867 514.235733c-13.431467-12.6464-35.515733 3.6864-47.786667 10.24-11.042133 5.922133-21.998933 11.758933-33.194667 17.288534a525.8752 525.8752 0 0 1 20.48 64.853333c2.4064 9.847467 5.444267 20.6336 6.9632 31.4368a24.405333 24.405333 0 0 1 1.194667-1.365333 179.6096 179.6096 0 0 0 11.3664-14.404267 599.330133 599.330133 0 0 0 36.078933-63.044267c5.393067-10.5984 15.547733-34.9184 4.898134-45.0048z" fill="#BDCF46" p-id="1673"></path><path d="M419.037867 839.918933c-9.045333 0.324267-18.158933 0.238933-27.511467 0.238934a865.467733 865.467733 0 0 1-195.754667-16.64C96.1536 801.041067 18.551467 741.444267 5.034667 634.794667c-8.311467-65.672533 4.9664-143.445333 55.688533-189.525334 47.598933-43.195733 133.12-55.125333 191.8464-35.191466a255.761067 255.761067 0 0 1 146.4832 144.315733 611.310933 611.310933 0 0 1 45.841067 148.48c1.365333 8.2432 16.4864 132.795733-1.194667 135.1168-8.192 1.1264-16.418133 1.6896-24.661333 1.928533z" fill="#BDCF46" p-id="1674"></path><path d="M241.988267 507.7504a41.5744 41.5744 0 0 1 14.7968 81.117867 41.5744 41.5744 0 0 1-14.7968-81.117867z" fill="#2F2F2F" p-id="1675"></path><path d="M61.9008 537.344a38.946133 38.946133 0 0 1 45.329067-30.8736 41.506133 41.506133 0 0 1-20.48 79.752533 39.1168 39.1168 0 0 1-24.849067-48.878933z" fill="#2F2F2F" p-id="1676"></path><path d="M190.395733 634.3168c-9.1136 4.9664-16.964267 10.24-27.5968 6.314667a63.351467 63.351467 0 0 1-17.3568-8.004267c-3.84-2.798933-8.157867-5.12-11.946666-7.918933-1.9968-1.4336-3.925333-2.952533-5.922134-4.4032a10.24 10.24 0 0 0-5.922133-2.798934c-2.321067-0.238933-6.826667-0.392533-8.635733 1.518934-7.5264 8.3968 3.037867 20.872533 8.721066 26.555733a116.6336 116.6336 0 0 0 31.675734 22.408533 37.870933 37.870933 0 0 0 33.28 4.642134 228.9152 228.9152 0 0 0 34.952533-24.234667c7.355733-5.597867 23.893333-15.36 20.957867-26.402133-1.9968-8.004267-11.281067-6.314667-17.3568-4.4032a135.509333 135.509333 0 0 0-21.674667 9.847466c-4.369067 2.2016-8.772267 4.5568-13.175467 6.877867z" fill="#2F2F2F" p-id="1677"></path></svg>